<svg width="252" height="84" viewBox="0 0 252 84" fill="none" xmlns="http://www.w3.org/2000/svg">
<path d="M38.3352 39C38.2216 37.5795 37.6889 36.4716 36.7372 35.6761C35.7997 34.8807 34.3722 34.483 32.4545 34.483C31.233 34.483 30.2315 34.6321 29.4503 34.9304C28.6832 35.2145 28.1151 35.6051 27.7457 36.1023C27.3764 36.5994 27.1847 37.1676 27.1705 37.8068C27.142 38.3324 27.2344 38.8082 27.4474 39.2344C27.6747 39.6463 28.0298 40.0227 28.5128 40.3636C28.9957 40.6903 29.6136 40.9886 30.3665 41.2585C31.1193 41.5284 32.0142 41.7699 33.0511 41.983L36.6307 42.75C39.0455 43.2614 41.1122 43.9361 42.831 44.7741C44.5497 45.6122 45.956 46.5994 47.0497 47.7358C48.1435 48.858 48.946 50.1222 49.4574 51.5284C49.983 52.9347 50.2528 54.4687 50.267 56.1307C50.2528 59 49.5355 61.429 48.1151 63.4176C46.6946 65.4062 44.6634 66.919 42.0213 67.956C39.3935 68.9929 36.233 69.5114 32.5398 69.5114C28.7472 69.5114 25.4375 68.9503 22.6108 67.8281C19.7983 66.706 17.6108 64.9801 16.0483 62.6506C14.5 60.3068 13.7188 57.3097 13.7045 53.6591H24.9545C25.0256 54.9943 25.3594 56.1165 25.956 57.0256C26.5526 57.9347 27.3906 58.6236 28.4702 59.0923C29.5639 59.5611 30.8636 59.7955 32.3693 59.7955C33.6335 59.7955 34.6918 59.6392 35.544 59.3267C36.3963 59.0142 37.0426 58.581 37.483 58.027C37.9233 57.473 38.1506 56.8409 38.1648 56.1307C38.1506 55.4631 37.9304 54.8807 37.5043 54.3835C37.0923 53.8722 36.4105 53.4176 35.4588 53.0199C34.5071 52.608 33.2216 52.2244 31.6023 51.8693L27.2557 50.9318C23.392 50.0937 20.3452 48.6946 18.1151 46.7344C15.8991 44.7599 14.7983 42.0682 14.8125 38.6591C14.7983 35.8892 15.5369 33.4673 17.0284 31.3935C18.5341 29.3054 20.6151 27.679 23.2713 26.5142C25.9418 25.3494 29.0028 24.767 32.4545 24.767C35.9773 24.767 39.0241 25.3565 41.5952 26.5355C44.1662 27.7145 46.1477 29.3764 47.5398 31.5213C48.946 33.652 49.6563 36.1449 49.6705 39H38.3352ZM66.62 25.3636V69H54.7734V25.3636H66.62Z" fill="white"/>
<path d="M83.5696 69H70.7855L85.1889 25.3636H101.382L115.786 69H103.001L93.456 37.3807H93.1151L83.5696 69ZM81.1832 51.7841H105.217V60.6477H81.1832V51.7841ZM119.988 69V25.3636H131.835V43.0057H132.431L145.556 25.3636H159.363L144.619 44.7955L159.704 69H145.556L135.755 52.6364L131.835 57.75V69H119.988ZM174.214 69H161.43L175.833 25.3636H192.027L206.43 69H193.646L184.1 37.3807H183.76L174.214 69ZM171.828 51.7841H195.862V60.6477H171.828V51.7841ZM227.423 69H210.633V25.3636H227.252C231.741 25.3636 235.619 26.2372 238.886 27.9844C242.167 29.7173 244.695 32.2173 246.471 35.4844C248.261 38.7372 249.156 42.6364 249.156 47.1818C249.156 51.7273 248.268 55.6335 246.492 58.9006C244.717 62.1534 242.202 64.6534 238.95 66.4006C235.697 68.1335 231.854 69 227.423 69ZM222.479 58.9432H226.996C229.156 58.9432 230.995 58.5952 232.515 57.8991C234.049 57.2031 235.214 56.0028 236.009 54.2983C236.819 52.5937 237.224 50.2216 237.224 47.1818C237.224 44.142 236.812 41.7699 235.988 40.0653C235.178 38.3608 233.985 37.1605 232.408 36.4645C230.846 35.7685 228.928 35.4205 226.656 35.4205H222.479V58.9432Z" fill="#7059FF"/>
<path d="M48.5808 6.93602L26.1599 4.51798C24.9381 4.38621 23.6911 4.62152 22.6022 5.18931L2.60341 15.6119C0.915727 16.4912 1.35579 18.8233 3.24788 19.0272L7.15671 19.4487C6.53186 20.59 6.26052 21.8895 6.46018 23.2188C5.80598 23.7705 5.43126 24.6139 5.59934 25.5047C5.75173 26.3122 6.31183 26.9102 7.01579 27.2274L6.69857 36.1999C6.67099 36.9802 7.38288 37.5813 8.16073 37.4345L12.4271 36.6295C13.2057 36.4826 13.6496 35.6633 13.3396 34.9468L9.77438 26.7068C10.3144 26.155 10.618 25.394 10.4656 24.5864C10.3021 23.7196 9.67329 23.0873 8.89508 22.7981C8.74054 21.662 9.13676 20.5569 9.94917 19.7504L25.669 21.446C26.3972 21.5243 27.7677 21.5349 29.2267 20.7747L49.2255 10.3522C50.9138 9.47188 50.4738 7.14052 48.5808 6.93602V6.93602ZM30.3739 22.9315C28.3284 23.9971 26.4115 23.9833 25.3867 23.8726L13.7302 22.6158L14.2559 31.3191C14.7556 33.9674 21.6967 34.8804 29.7595 33.3589C37.8224 31.8375 43.9534 28.4578 43.4537 25.8096L40.7715 17.5124L30.3739 22.9315V22.9315Z" fill="#7059FF"/>
</svg>
